PathFileType	4	(X/Y/Z)	C:/Users/opensim2020/Desktop/walking_exp_matlab/subject06_walking17_straight_02.trc																																																																																																																																					
DataRate	CameraRate	NumFrames	NumMarkers	Units	OrigDataRate	OrigDataStartFrame	OrigNumFrames																																																																																																																																	
100	100	5	45	mm	100	2240	334																																																																																																																																	
Frame#	Time	LFHD			RFHD			LBHD			RBHD			C7			T10			CLAV			STRN			RBAK			LSHO			LUPA			LELB			LFRM			LWRA			LWRB			LFIN			RSHO			RUPA			RELB			RFRM			RWRA			RWRB			RFIN			LASI			RASI			LPSI			RPSI			LTHI			LKNE			LTIB			LANK			LHEE			LTOE			RTHI			RKNE			RTIB			RANK			RHEE			RTOE			*39			*40			*41			*42			*43			*44		
		X1	Y1	Z1	X2	Y2	Z2	X3	Y3	Z3	X4	Y4	Z4	X5	Y5	Z5	X6	Y6	Z6	X7	Y7	Z7	X8	Y8	Z8	X9	Y9	Z9	X10	Y10	Z10	X11	Y11	Z11	X12	Y12	Z12	X13	Y13	Z13	X14	Y14	Z14	X15	Y15	Z15	X16	Y16	Z16	X17	Y17	Z17	X18	Y18	Z18	X19	Y19	Z19	X20	Y20	Z20	X21	Y21	Z21	X22	Y22	Z22	X23	Y23	Z23	X24	Y24	Z24	X25	Y25	Z25	X26	Y26	Z26	X27	Y27	Z27	X28	Y28	Z28	X29	Y29	Z29	X30	Y30	Z30	X31	Y31	Z31	X32	Y32	Z32	X33	Y33	Z33	X34	Y34	Z34	X35	Y35	Z35	X36	Y36	Z36	X37	Y37	Z37	X38	Y38	Z38	X39	Y39	Z39	X40	Y40	Z40	X41	Y41	Z41	X42	Y42	Z42	X43	Y43	Z43	X44	Y44	Z44	X45	Y45	Z45
																																																																																																																																								
84	0.83	-672.26202	1678.63391	-1478.05383	-678.33936	1659.5824	-1347.7323	-803.03479	1618.4679	-1489.35632	-807.815	1605.2345	-1361.33838	-801.29346	1462.58313	-1434.29175	-844.46826	1136.69128	-1417.22485	-691.9035	1383.63147	-1436.00928	-659.6983	1205.03394	-1441.92163	-873.20343	1296.14746	-1346.65833	-749.78192	1414.17261	-1595.84534	-757.28406	1210.55713	-1666.02966	-761.3761	1098.65295	-1677.55908	-728.19751	951.79504	-1697.67151	-661.92767	841.85175	-1652.42346	-720.9696	832.28394	-1691.89746	-671.94659	755.24646	-1691.18457	-727.99109	1418.51465	-1274.53577	-754.38397	1220.18604	-1181.53955	-739.40637	1099.55103	-1167.29163	-707.49493	983.7218	-1151.01575	-630.07806	855.04395	-1186.85364	-681.27307	849.15063	-1143.12317	-633.50214	779.45441	-1143.20032	-681.73932	969.21173	-1534.68396	-666.83453	973.04858	-1314.25793	-837.45856	1001.81824	-1499.41748	-820.48993	1008.61957	-1331.93079	-706.78235	658.39081	-1589.12939	-671.97424	500.07816	-1564.15479	-793.44824	280.66837	-1568.32507	-860.92426	119.92233	-1537.66895	-900.6889	112.73596	-1489.06543	-735.59576	51.67621	-1549.84448	-749.35547	640.55975	-1267.91492	-758.79895	515.09894	-1292.82141	-824.78656	257.03079	-1310.8855	-847.32965	73.54403	-1366.12891	-885.41211	51.24992	-1413.4021	-693.29071	36.96814	-1364.12378	-777.57776	1708.8092	-1422.6687	NaN	NaN	NaN	NaN	NaN	NaN	NaN	NaN	NaN	NaN	NaN	NaN	NaN	NaN	NaN
85	0.84	-666.01038	1678.03308	-1478.17798	-671.86011	1659.16479	-1347.84192	-796.65552	1618.10938	-1488.89758	-801.5564	1605.16077	-1361.14429	-795.61755	1462.30017	-1433.71753	-838.76514	1136.26208	-1416.53833	-686.39557	1383.27441	-1435.77295	-654.10284	1204.6676	-1441.54871	-867.46436	1295.89209	-1345.80286	-744.82336	1413.67883	-1595.51392	-753.40405	1210.07007	-1665.73315	-758.09674	1098.24207	-1677.26086	-726.17169	950.98651	-1697.21814	-661.38605	840.33667	-1651.85779	-720.28735	831.54694	-1691.65198	-672.14825	753.94312	-1690.84619	-722.02875	1418.22449	-1274.24255	-747.63007	1219.8855	-1181.01147	-732.0257	1099.31653	-1166.8158	-698.9538	983.80249	-1150.89453	-620.76685	855.79431	-1187.45923	-671.4599	849.61603	-1143.17615	-623.26398	780.32758	-1143.35376	-675.40692	969.35992	-1534.05432	-660.95386	972.71472	-1313.60681	-831.38629	1001.43018	-1499.0802	-814.7298	1008.06873	-1331.55151	-698.03284	659.02893	-1589.34448	-661.83618	500.99286	-1564.01941	-776.28699	277.47989	-1568.18945	-837.16058	114.1136	-1537.55273	-876.27826	105.31298	-1488.81592	-709.5072	50.93697	-1550.83044	-744.77002	640.24426	-1268.11731	-755.24432	514.79797	-1292.88623	-823.04218	257.19012	-1311.20337	-846.96417	73.89247	-1366.15735	-885.20538	51.64221	-1413.44592	-693.02441	36.93692	-1364.02234	-771.12848	1708.59021	-1422.69592	NaN	NaN	NaN	NaN	NaN	NaN	NaN	NaN	NaN	NaN	NaN	NaN	NaN	NaN	NaN
86	0.85	-659.71973	1677.37061	-1478.42834	-665.44733	1658.73206	-1347.99878	-790.84271	1617.94617	-1489.10461	-795.31226	1605.08313	-1361.0907	-789.95825	1462.0094	-1433.29419	-833.05432	1135.75903	-1415.8844	-680.87311	1382.86279	-1435.58496	-648.64673	1204.32764	-1441.15601	-861.72925	1295.59314	-1344.99304	-739.85309	1413.13757	-1595.20691	-749.48218	1209.57544	-1665.52124	-754.74396	1097.78796	-1677.03894	-724.16779	950.27954	-1696.94751	-660.85504	838.83057	-1651.15784	-719.51636	830.63446	-1691.28369	-672.29169	752.60864	-1690.39954	-716.07135	1417.94177	-1273.98071	-740.76685	1219.5354	-1180.6582	-724.526	1099.0293	-1166.56433	-690.51678	983.87024	-1150.92078	-611.72589	856.20508	-1188.20874	-661.75476	850.11401	-1143.33215	-613.0968	781.25262	-1143.68103	-669.03766	969.46655	-1533.47461	-656.85443	972.06073	-1313.54614	-825.31952	1001.03833	-1498.75903	-808.90533	1007.50403	-1331.23425	-689.56708	659.60004	-1589.63367	-651.94965	501.99506	-1564.26208	-759.06152	274.38779	-1568.1521	-813.18073	108.61525	-1537.40918	-851.77576	98.43929	-1488.1792	-683.16974	50.35108	-1551.92554	-740.20276	639.9079	-1268.28894	-751.77252	514.54822	-1292.9873	-821.27155	257.31982	-1311.56848	-846.56683	74.14548	-1366.41724	-884.99658	52.08393	-1413.61011	-692.98273	36.75818	-1364.3252	-764.64087	1708.31335	-1422.75269	NaN	NaN	NaN	NaN	NaN	NaN	NaN	NaN	NaN	NaN	NaN	NaN	NaN	NaN	NaN
87	0.86	-653.4953	1676.65198	-1478.71533	-659.02057	1658.27612	-1348.27405	-784.46844	1617.49146	-1488.7915	-789.0918	1604.99097	-1361.04321	-784.35248	1461.63196	-1432.92627	-827.38397	1135.3053	-1415.2605	-675.36389	1382.40649	-1435.45996	-643.09949	1203.92639	-1440.86353	-856.00226	1295.30872	-1344.25842	-734.86084	1412.57141	-1594.96777	-745.54346	1209.08362	-1665.37268	-751.19336	1097.2959	-1676.86011	-722.01263	949.50848	-1696.55713	-660.28296	837.26239	-1650.35547	-718.68518	829.73492	-1690.97058	-672.42627	751.22552	-1689.85559	-710.13995	1417.65967	-1273.80603	-734.15002	1219.19592	-1180.26978	-717.25061	1098.79919	-1166.23071	-682.12573	983.92712	-1150.98962	-602.77844	856.83704	-1189.06128	-652.15643	850.60889	-1143.59216	-603.03925	782.16418	-1144.13611	-662.92767	969.46985	-1532.84912	-649.38092	971.93158	-1312.41821	-819.19904	1000.68225	-1498.49231	-803.10248	1006.94409	-1330.88513	-681.4549	660.06793	-1590.03271	-642.3587	502.78693	-1564.40784	-741.93842	271.55499	-1568.09448	-789.08533	103.51729	-1537.31567	-826.42072	91.60139	-1488.07532	-656.90045	50.23705	-1553.19165	-735.99561	639.46661	-1268.10083	-748.21436	514.31024	-1293.24988	-819.34033	257.41342	-1312.09277	-846.15253	74.45368	-1366.70471	-884.72736	52.51082	-1413.84241	-693.22491	36.98009	-1364.03247	-758.20667	1707.9928	-1422.94189	NaN	NaN	NaN	NaN	NaN	NaN	NaN	NaN	NaN	NaN	NaN	NaN	NaN	NaN	NaN
88	0.87	-647.18268	1675.88635	-1479.1145	-652.66058	1657.74121	-1348.58679	-778.72858	1617.26294	-1489.1427	-782.9043	1604.87366	-1361.03955	-778.78619	1461.23914	-1432.69983	-821.78638	1134.78223	-1414.71936	-669.85876	1381.86743	-1435.33362	-637.63654	1203.48816	-1440.57092	-850.31696	1295.00574	-1343.63123	-729.8233	1411.91724	-1594.76318	-741.47369	1208.4762	-1665.24084	-747.55542	1096.73059	-1676.6322	-719.68683	948.67676	-1696.13208	-659.67767	835.69409	-1649.4812	-717.88599	828.9762	-1690.84216	-672.46167	749.83832	-1689.17224	-704.27795	1417.31873	-1273.69824	-727.6286	1218.84863	-1180.21021	-709.83173	1098.56006	-1166.14539	-673.87677	983.98853	-1151.099	-593.75513	857.49066	-1190.06531	-642.72491	851.09888	-1143.90405	-592.96277	783.05255	-1144.82983	-656.64386	969.48602	-1532.26636	-647.26855	970.89594	-1312.6825	-813.11487	1000.23627	-1498.172	-797.21259	1006.37225	-1330.57654	-673.86176	660.39728	-1590.505	-632.98236	503.47607	-1564.90698	-724.81952	268.74298	-1568.18262	-764.68323	98.76957	-1537.09973	-801.14099	85.42273	-1487.24084	-630.81818	50.47396	-1554.58105	-731.72144	639.22571	-1268.19202	-744.69574	514.0766	-1293.49084	-817.6792	257.62189	-1312.57178	-845.72491	74.84257	-1367.08813	-884.49036	53.0263	-1414.20386	-693.00604	36.90791	-1363.97412	-751.77521	1707.68152	-1423.26257	NaN	NaN	NaN	NaN	NaN	NaN	NaN	NaN	NaN	NaN	NaN	NaN	NaN	NaN	NaN
